<?xml version="1.0" standalone="no"?>
<!DOCTYPE svg PUBLIC "-//W3C//DTD SVG 20010904//EN"
 "http://www.w3.org/TR/2001/REC-SVG-20010904/DTD/svg10.dtd">
<svg version="1.0" xmlns="http://www.w3.org/2000/svg"
 width="241.000000pt" height="241.000000pt" viewBox="0 0 241.000000 241.000000"
 preserveAspectRatio="xMidYMid meet">
<metadata>
Created by potrace 1.11, written by Peter Selinger 2001-2013
</metadata>
<g transform="translate(0.000000,241.000000) scale(0.100000,-0.100000)"
fill="#000000" stroke="none">
<path d="M0 2395 c0 -8 9 -15 20 -15 18 0 20 -7 20 -60 0 -53 -2 -60 -20 -60
-11 0 -20 -7 -20 -15 0 -8 9 -15 20 -15 20 0 20 -7 20 -1070 l0 -1070 1185 0
1185 0 0 1150 0 1150 -519 0 c-406 0 -520 3 -524 13 -4 9 -8 8 -16 -3 -7 -10
-11 -11 -11 -2 0 6 -11 12 -25 12 -14 0 -25 -4 -25 -10 0 -5 -13 -10 -30 -10
-16 0 -30 5 -30 10 0 6 -16 10 -35 10 -19 0 -35 -4 -35 -10 0 -5 -11 -10 -25
-10 -14 0 -25 5 -25 10 0 6 -35 10 -85 10 -50 0 -85 -4 -85 -10 0 -16 -737
-14 -743 3 -4 9 -8 8 -16 -3 -7 -10 -11 -11 -11 -2 0 6 -11 12 -25 12 -14 0
-25 -4 -25 -10 0 -5 -13 -10 -30 -10 -16 0 -30 5 -30 10 0 6 -13 10 -30 10
-20 0 -30 -5 -30 -15z m2230 -88 c0 -43 -2 -45 -202 -245 -175 -173 -205 -199
-218 -188 -8 7 -32 16 -52 19 -37 6 -52 -3 -53 -30 0 -6 -84 -92 -187 -192
-180 -175 -187 -181 -227 -181 l-41 0 0 -100 0 -100 100 0 c98 0 100 1 100 23
0 17 54 76 194 215 155 154 198 192 217 190 23 -3 24 0 21 42 -2 25 -8 50 -13
56 -6 8 56 75 191 208 l200 196 50 0 50 0 0 -980 0 -980 -51 0 -50 0 -195 192
c-132 130 -191 195 -184 202 5 5 10 22 10 37 0 15 5 31 10 34 14 9 -8 36 -26
33 -7 -2 -105 86 -218 195 l-206 199 0 44 0 44 -100 0 -100 0 0 -40 c0 -33 -3
-40 -20 -40 -17 0 -20 7 -20 39 0 35 -3 39 -31 45 -17 3 -65 6 -105 6 l-74 0
0 -44 0 -44 -206 -198 c-113 -110 -211 -198 -218 -196 -21 4 -42 -26 -28 -40
7 -7 12 -21 12 -33 0 -12 5 -26 12 -33 8 -8 -36 -58 -188 -206 l-199 -195 -47
-1 -48 0 0 980 0 980 53 0 52 0 200 -199 c134 -133 198 -204 193 -213 -7 -14
-22 -66 -22 -83 -1 -5 9 -10 20 -10 30 -1 414 -376 414 -404 0 -20 6 -21 100
-21 82 0 100 3 100 15 0 8 7 15 15 15 21 0 19 20 -2 21 -17 1 -17 2 0 6 21 5
23 23 2 23 -12 0 -15 13 -15 60 l0 60 -47 0 -48 0 -180 180 c-99 99 -179 186
-177 194 4 21 -26 42 -40 28 -7 -7 -21 -12 -33 -12 -12 0 -25 -4 -30 -9 -6 -6
-45 23 -100 75 l-90 84 63 0 c48 0 62 3 62 15 0 12 -15 15 -77 15 l-78 0 -97
97 c-54 54 -98 101 -98 105 0 5 14 8 30 8 23 0 30 4 30 20 0 16 -7 20 -30 20
-23 0 -30 4 -30 20 0 20 7 20 1000 20 l1000 0 0 -43z m-980 -1212 c0 -35 4
-45 16 -45 9 0 117 -97 239 -215 169 -163 222 -220 218 -234 -3 -10 -1 -21 5
-25 9 -5 59 8 93 24 12 6 45 -21 135 -111 97 -97 118 -124 116 -144 -3 -22 1
-25 25 -25 38 0 137 -95 110 -106 -24 -9 -21 -34 3 -34 16 0 20 -7 20 -30 l0
-30 -1000 0 -1000 0 0 59 0 59 191 184 c184 177 192 183 227 180 20 -2 43 -9
50 -14 17 -15 46 10 32 27 -16 19 411 429 451 433 27 3 29 6 29 48 0 37 3 44
20 44 17 0 20 -7 20 -45z"/>
<path d="M1030 2290 c0 -18 7 -20 85 -20 78 0 85 2 85 20 0 18 -7 20 -85 20
-78 0 -85 -2 -85 -20z"/>
<path d="M1250 2290 c0 -16 7 -20 30 -20 23 0 30 4 30 20 0 16 -7 20 -30 20
-23 0 -30 -4 -30 -20z"/>
<path d="M1370 2290 c0 -15 7 -20 25 -20 18 0 25 5 25 20 0 15 -7 20 -25 20
-18 0 -25 -5 -25 -20z"/>
<path d="M1430 2290 c0 -11 5 -20 10 -20 6 0 10 9 10 20 0 11 -4 20 -10 20 -5
0 -10 -9 -10 -20z"/>
<path d="M970 2115 c0 -12 16 -15 85 -15 69 0 85 3 85 15 0 12 -16 15 -85 15
-69 0 -85 -3 -85 -15z"/>
<path d="M1190 2115 c0 -10 10 -15 30 -15 20 0 30 5 30 15 0 10 -10 15 -30 15
-20 0 -30 -5 -30 -15z"/>
<path d="M1310 2115 c0 -11 12 -15 45 -15 33 0 45 4 45 15 0 11 -12 15 -45 15
-33 0 -45 -4 -45 -15z"/>
<path d="M650 1915 c0 -10 10 -15 30 -15 20 0 30 5 30 15 0 10 -10 15 -30 15
-20 0 -30 -5 -30 -15z"/>
<path d="M780 1915 c0 -11 11 -15 40 -15 29 0 40 4 40 15 0 11 -11 15 -40 15
-29 0 -40 -4 -40 -15z"/>
<path d="M140 1180 c0 -5 25 -10 55 -10 30 0 55 5 55 10 0 6 -25 10 -55 10
-30 0 -55 -4 -55 -10z"/>
<path d="M290 1180 c0 -5 9 -10 20 -10 11 0 20 5 20 10 0 6 -9 10 -20 10 -11
0 -20 -4 -20 -10z"/>
<path d="M370 1180 c0 -5 14 -10 30 -10 17 0 30 5 30 10 0 6 -13 10 -30 10
-16 0 -30 -4 -30 -10z"/>
<path d="M140 1135 c0 -12 13 -15 55 -15 42 0 55 3 55 15 0 12 -13 15 -55 15
-42 0 -55 -3 -55 -15z"/>
<path d="M290 1135 c0 -8 9 -15 20 -15 11 0 20 7 20 15 0 8 -9 15 -20 15 -11
0 -20 -7 -20 -15z"/>
<path d="M370 1135 c0 -10 10 -15 30 -15 20 0 30 5 30 15 0 10 -10 15 -30 15
-20 0 -30 -5 -30 -15z"/>
<path d="M600 930 c0 -6 30 -10 70 -10 40 0 70 4 70 10 0 6 -30 10 -70 10 -40
0 -70 -4 -70 -10z"/>
<path d="M2070 205 c0 -8 5 -15 10 -15 6 0 10 7 10 15 0 8 -4 15 -10 15 -5 0
-10 -7 -10 -15z"/>
<path d="M2070 65 c0 -10 -10 -15 -30 -15 -23 0 -30 -4 -30 -20 0 -17 7 -20
40 -20 39 0 40 1 40 35 0 19 -4 35 -10 35 -5 0 -10 -7 -10 -15z"/>
<path d="M2100 60 c0 -15 7 -20 25 -20 18 0 25 5 25 20 0 15 -7 20 -25 20 -18
0 -25 -5 -25 -20z"/>
<path d="M2160 30 c0 -16 7 -20 30 -20 23 0 30 4 30 20 0 16 -7 20 -30 20 -23
0 -30 -4 -30 -20z"/>
</g>
</svg>
